Coordinates
version=1
nRows=27
nColumns=38
inDegrees=no

Units are S.I. units (second, meters, Newtons, ...)
If the header above contains a line with 'inDegrees', this indicates whether rotational values are in degrees (yes) or radians (no).

endheader
time	pelvis_tilt	pelvis_list	pelvis_rotation	pelvis_tx	pelvis_ty	pelvis_tz	hip_flexion_r	hip_adduction_r	hip_rotation_r	knee_angle_r	ankle_angle_r	subtalar_angle_r	mtp_angle_r	hip_flexion_l	hip_adduction_l	hip_rotation_l	knee_angle_l	ankle_angle_l	subtalar_angle_l	mtp_angle_l	lumbar_extension	lumbar_bending	lumbar_rotation	arm_flex_r	arm_add_r	arm_rot_r	elbow_flex_r	pro_sup_r	wrist_flex_r	wrist_dev_r	arm_flex_l	arm_add_l	arm_rot_l	elbow_flex_l	pro_sup_l	wrist_flex_l	wrist_dev_l
21.49	2.82417	1.36556	-1.16894	0.659897	-0.171642	0.952204	-0.226429	0.0319031	-0.00826767	0.221114	-0.249139	0	0	-0.186764	-0.0887873	-0.0220597	0.319877	-0.155583	0	0	-0.329076	0.0509421	-0.0370147	0.779289	-0.55287	0.481646	1.12298	1.5708	0	0	0.836363	-0.315843	0.555292	1.07512	1.5708	0	0
21.5	2.81973	1.36538	-1.16815	0.660506	-0.171465	0.952261	-0.225353	0.0324557	-0.00833626	0.222176	-0.249684	0	0	-0.187733	-0.0892684	-0.0221022	0.31895	-0.155552	0	0	-0.3293	0.051382	-0.0345989	0.782448	-0.552477	0.484207	1.1196	1.5708	0	0	0.833594	-0.314844	0.550891	1.07788	1.5708	0	0
21.51	2.8151	1.36556	-1.16759	0.661128	-0.171262	0.952259	-0.223953	0.0328999	-0.0075914	0.223174	-0.249987	0	0	-0.188471	-0.0895916	-0.022664	0.318194	-0.155252	0	0	-0.328965	0.0515666	-0.0318903	0.785603	-0.552133	0.487486	1.11672	1.5708	0	0	0.83008	-0.314137	0.545578	1.08091	1.5708	0	0
21.52	2.8109	1.36588	-1.16736	0.661719	-0.171056	0.952236	-0.222601	0.0332213	-0.00671466	0.224048	-0.250042	0	0	-0.189024	-0.089785	-0.0231904	0.317626	-0.154883	0	0	-0.328387	0.0516533	-0.0293044	0.788612	-0.551401	0.490823	1.11397	1.5708	0	0	0.825873	-0.313553	0.539163	1.08404	1.5708	0	0
21.53	2.80752	1.36613	-1.16763	0.662274	-0.170859	0.952228	-0.221643	0.0334787	-0.00601071	0.224651	-0.249952	0	0	-0.189716	-0.0898948	-0.0234539	0.316897	-0.154453	0	0	-0.327819	0.051722	-0.027041	0.791323	-0.550382	0.494447	1.11176	1.5708	0	0	0.821171	-0.313104	0.531736	1.08708	1.5708	0	0
21.54	2.805	1.36633	-1.16843	0.662805	-0.170641	0.952243	-0.221093	0.0336167	-0.00542153	0.224803	-0.24986	0	0	-0.190569	-0.0899029	-0.023873	0.315978	-0.154218	0	0	-0.327299	0.0517512	-0.0250996	0.793558	-0.54951	0.498561	1.11067	1.5708	0	0	0.816142	-0.313197	0.524153	1.09043	1.5708	0	0
21.55	2.80309	1.36645	-1.16936	0.663315	-0.170397	0.952263	-0.220929	0.0337751	-0.00514813	0.224562	-0.249873	0	0	-0.191464	-0.089975	-0.0244579	0.315201	-0.15406	0	0	-0.326811	0.0517594	-0.0237106	0.795228	-0.548706	0.502691	1.11056	1.5708	0	0	0.810949	-0.313888	0.516846	1.09421	1.5708	0	0
21.56	2.80181	1.36659	-1.17039	0.663775	-0.170159	0.952263	-0.220872	0.0338923	-0.00497788	0.224216	-0.24992	0	0	-0.192354	-0.0899558	-0.0244797	0.314314	-0.154064	0	0	-0.326237	0.0516637	-0.0225677	0.796025	-0.548197	0.506071	1.11138	1.5708	0	0	0.806286	-0.314771	0.510676	1.09758	1.5708	0	0
21.57	2.80057	1.36686	-1.17141	0.664237	-0.169877	0.952232	-0.220828	0.0340023	-0.00434485	0.22365	-0.249949	0	0	-0.193255	-0.0899573	-0.0250175	0.313273	-0.153825	0	0	-0.325409	0.0515339	-0.0213518	0.796011	-0.547625	0.508659	1.11292	1.5708	0	0	0.801792	-0.315891	0.504915	1.10065	1.5708	0	0
21.58	2.79936	1.36722	-1.17241	0.664715	-0.169554	0.952192	-0.220917	0.0341649	-0.00315379	0.222811	-0.249949	0	0	-0.194243	-0.0900186	-0.0260786	0.311966	-0.153517	0	0	-0.324387	0.051488	-0.0202336	0.795233	-0.546645	0.510479	1.11549	1.5708	0	0	0.797192	-0.317549	0.499205	1.10372	1.5708	0	0
21.59	2.79869	1.36734	-1.17353	0.665189	-0.169232	0.952174	-0.221371	0.0344343	-0.00201855	0.221907	-0.249894	0	0	-0.195504	-0.0901484	-0.0267893	0.310746	-0.153445	0	0	-0.323489	0.0514237	-0.0191219	0.79376	-0.545694	0.511443	1.11878	1.5708	0	0	0.793285	-0.31962	0.494915	1.10628	1.5708	0	0
21.6	2.79797	1.36729	-1.17422	0.665644	-0.168949	0.952168	-0.221972	0.0348438	-0.000825235	0.221009	-0.249822	0	0	-0.196747	-0.090402	-0.027303	0.309555	-0.153523	0	0	-0.322925	0.0514644	-0.0181172	0.792153	-0.545105	0.512304	1.12287	1.5708	0	0	0.789733	-0.321974	0.491101	1.1091	1.5708	0	0
21.61	2.79733	1.36706	-1.17464	0.666071	-0.168701	0.952172	-0.222744	0.0353847	0.000321649	0.220212	-0.24973	0	0	-0.198043	-0.090793	-0.0277096	0.308375	-0.153658	0	0	-0.322728	0.0515941	-0.0173492	0.790411	-0.544585	0.512874	1.12726	1.5708	0	0	0.786603	-0.324566	0.487871	1.11224	1.5708	0	0
21.62	2.79732	1.3667	-1.17527	0.666499	-0.168486	0.952189	-0.223616	0.0358676	0.00155607	0.219505	-0.249648	0	0	-0.199385	-0.0912246	-0.0280663	0.307283	-0.153737	0	0	-0.322813	0.0516474	-0.0167596	0.788567	-0.544166	0.512884	1.13147	1.5708	0	0	0.783963	-0.327135	0.485523	1.11547	1.5708	0	0
21.63	2.79895	1.36647	-1.1772	0.666966	-0.16828	0.952193	-0.224481	0.0359941	0.0030171	0.218681	-0.24959	0	0	-0.200699	-0.0914205	-0.0283069	0.306204	-0.153753	0	0	-0.322952	0.0512075	-0.0163344	0.7866	-0.543779	0.512277	1.13517	1.5708	0	0	0.781805	-0.329819	0.484317	1.11883	1.5708	0	0
21.64	2.80123	1.36634	-1.17953	0.667437	-0.168093	0.95219	-0.225159	0.0359267	0.00456077	0.217765	-0.249692	0	0	-0.201879	-0.0914621	-0.0285035	0.305128	-0.153799	0	0	-0.323008	0.0504639	-0.016095	0.78456	-0.543406	0.51116	1.13832	1.5708	0	0	0.780089	-0.33272	0.48431	1.12224	1.5708	0	0
21.65	2.80279	1.36611	-1.18095	0.667888	-0.167952	0.952213	-0.225802	0.0361985	0.00552973	0.217183	-0.249837	0	0	-0.203052	-0.0917218	-0.0287631	0.303935	-0.153935	0	0	-0.323202	0.049835	-0.0159121	0.782521	-0.543075	0.509474	1.14092	1.5708	0	0	0.778902	-0.335657	0.485478	1.1257	1.5708	0	0
21.66	2.8048	1.36584	-1.18274	0.668311	-0.167885	0.952228	-0.226316	0.0364583	0.00626941	0.217159	-0.249831	0	0	-0.204223	-0.0918685	-0.0291678	0.302755	-0.154143	0	0	-0.323642	0.0491124	-0.0157556	0.780636	-0.542797	0.507308	1.14309	1.5708	0	0	0.778363	-0.338563	0.487653	1.12915	1.5708	0	0
21.67	2.80775	1.36559	-1.18558	0.668732	-0.167883	0.952227	-0.226663	0.0364726	0.00735144	0.217501	-0.249616	0	0	-0.205466	-0.0917252	-0.0296588	0.301446	-0.154398	0	0	-0.324385	0.048138	-0.0155731	0.778881	-0.542588	0.504583	1.14494	1.5708	0	0	0.778456	-0.341584	0.490895	1.13281	1.5708	0	0
21.68	2.81082	1.3651	-1.18866	0.669186	-0.167898	0.952278	-0.227211	0.03642	0.00822852	0.217894	-0.249321	0	0	-0.207094	-0.0917319	-0.0305644	0.299788	-0.15494	0	0	-0.325589	0.047057	-0.0152571	0.77679	-0.542324	0.500718	1.14668	1.5708	0	0	0.779147	-0.345167	0.495829	1.137	1.5708	0	0
21.69	2.81316	1.36455	-1.1909	0.669634	-0.167963	0.952339	-0.227524	0.0364634	0.00804717	0.218497	-0.249222	0	0	-0.208685	-0.09199	-0.0310645	0.298002	-0.155608	0	0	-0.326761	0.046192	-0.0150206	0.774962	-0.542059	0.496905	1.14776	1.5708	0	0	0.779956	-0.34831	0.500727	1.14088	1.5708	0	0
21.7	2.81549	1.36398	-1.1929	0.670046	-0.168108	0.952401	-0.227715	0.0366447	0.00728423	0.21931	-0.249099	0	0	-0.210136	-0.0922886	-0.0305987	0.296007	-0.156523	0	0	-0.328179	0.0454561	-0.0151227	0.773619	-0.541759	0.493193	1.14848	1.5708	0	0	0.780829	-0.351296	0.505342	1.14493	1.5708	0	0
21.71	2.8183	1.36324	-1.19509	0.670422	-0.168324	0.952474	-0.228095	0.0369679	0.00599948	0.220146	-0.248852	0	0	-0.211568	-0.0926227	-0.0295757	0.294159	-0.157521	0	0	-0.330014	0.0447163	-0.0156218	0.772667	-0.541296	0.489433	1.14886	1.5708	0	0	0.781824	-0.354183	0.509646	1.14913	1.5708	0	0
21.72	2.81985	1.36254	-1.19597	0.670776	-0.168583	0.952548	-0.228377	0.0376401	0.00486888	0.220786	-0.248708	0	0	-0.212644	-0.0931866	-0.0284106	0.292877	-0.158098	0	0	-0.331702	0.0442183	-0.0161978	0.772154	-0.541079	0.486501	1.149	1.5708	0	0	0.782439	-0.356342	0.512663	1.15297	1.5708	0	0
21.73	2.82111	1.36229	-1.19678	0.671175	-0.168806	0.95256	-0.228308	0.0378989	0.00414045	0.221185	-0.248579	0	0	-0.213488	-0.0936081	-0.0276139	0.291369	-0.15848	0	0	-0.332982	0.0433584	-0.0167286	0.771573	-0.540969	0.483795	1.14934	1.5708	0	0	0.782653	-0.358836	0.515282	1.15751	1.5708	0	0
21.74	2.82263	1.36214	-1.19818	0.671567	-0.169149	0.952581	-0.227853	0.0381636	0.00428667	0.221962	-0.248339	0	0	-0.21425	-0.0937425	-0.0272439	0.289744	-0.1589	0	0	-0.334833	0.0423887	-0.0171944	0.771552	-0.540808	0.481325	1.15003	1.5708	0	0	0.783306	-0.361653	0.517669	1.16238	1.5708	0	0
21.75	2.82472	1.36188	-1.2002	0.671912	-0.169636	0.952641	-0.227352	0.0380205	0.00535123	0.222848	-0.248076	0	0	-0.214921	-0.0936779	-0.027061	0.288329	-0.159481	0	0	-0.337473	0.0414676	-0.0176983	0.772004	-0.540714	0.47907	1.15145	1.5708	0	0	0.784336	-0.364711	0.519577	1.16728	1.5708	0	0
